<?xml version="1.0" standalone="no"?>
<!DOCTYPE svg PUBLIC "-//W3C//DTD SVG 20010904//EN"
 "http://www.w3.org/TR/2001/REC-SVG-20010904/DTD/svg10.dtd">
<svg version="1.0" xmlns="http://www.w3.org/2000/svg"
 width="128.000000pt" height="128.000000pt" viewBox="0 0 128.000000 128.000000"
 preserveAspectRatio="xMidYMid meet">
<metadata>
Created by potrace 1.11, written by Peter Selinger 2001-2013
</metadata>
<g transform="translate(0.000000,128.000000) scale(0.100000,-0.100000)"
fill="#000000" stroke="none">
<path d="M616 1264 c-3 -9 -6 -28 -6 -43 l0 -28 -256 1 c-232 1 -257 -1 -263
-16 -3 -9 -6 -172 -5 -361 l1 -345 -28 -6 c-32 -6 -41 -39 -13 -50 9 -3 139
-6 290 -6 l274 0 0 -67 -1 -68 -109 -115 c-108 -113 -127 -144 -93 -157 12 -5
41 19 109 92 l93 98 3 -88 c2 -71 6 -90 21 -99 28 -17 37 8 37 103 l0 85 93
-99 c69 -73 98 -97 110 -92 33 13 15 44 -93 157 l-109 115 -1 68 0 67 279 0
c234 0 281 2 291 15 17 21 5 45 -23 45 l-24 0 -1 348 c0 191 -1 354 -1 362 -1
13 -36 15 -261 14 l-260 -1 0 31 c0 48 -40 77 -54 40z"/>
</g>
</svg>
